<?xml version="1.0" encoding="UTF-8"?>
<svg width="218px" height="152px" viewBox="0 0 218 152" version="1.1" xmlns="http://www.w3.org/2000/svg" xmlns:xlink="http://www.w3.org/1999/xlink">
    <!-- Generator: Sketch 52.6 (67491) - http://www.bohemiancoding.com/sketch -->
    <title>access</title>
    <desc>Created with Sketch.</desc>
    <g id="Page-1" stroke="none" stroke-width="1" fill="none" fill-rule="evenodd">
        <g id="access" fill="#50E3BE">
            <path d="M67.3153931,131.361109 C63.7143294,131.493463 60.8632931,134.454058 60.8632931,138.061149 C60.8632931,141.668239 63.7143294,144.628834 67.3153931,144.761188 C71.0048552,144.761188 74.0087448,141.754297 74.0087448,138.061149 C74.0087448,134.368 71.0048552,131.361109 67.3153931,131.361109 Z M67.3153931,140.246337 C66.5125941,140.28205 65.755105,139.873379 65.3435267,139.182499 C64.9319484,138.491619 64.9328383,137.630255 65.3458432,136.940228 C65.758848,136.250202 66.5171799,135.8431 67.3199034,135.880475 C68.4857201,135.934757 69.4026846,136.89732 69.4014778,138.065563 C69.4002708,139.233806 68.4813195,140.194469 67.3153931,140.246337 Z" id="Shape" fill-rule="nonzero"></path>
            <path d="M71.1311448,56.4597228 C71.1311448,55.212981 70.1214697,54.202297 68.8759724,54.202297 L55.9448138,54.202297 C54.6993165,54.202297 53.6896414,55.212981 53.6896414,56.4597228 C53.6896414,57.7064645 54.6993165,58.7171485 55.9448138,58.7171485 L68.8759724,58.7171485 C70.1214697,58.7171485 71.1311448,57.7064645 71.1311448,56.4597228 Z M78.6904828,54.202297 L73.8959862,54.202297 C72.6504889,54.202297 71.6408138,55.212981 71.6408138,56.4597228 C71.6408138,57.7064645 72.6504889,58.7171485 73.8959862,58.7171485 L78.6904828,58.7171485 C79.9359801,58.7171485 80.9456552,57.7064645 80.9456552,56.4597228 C80.9456552,55.212981 79.9359801,54.202297 78.6904828,54.202297 Z" id="Shape" fill-rule="nonzero"></path>
            <path d="M213.202497,41.0505347 L207.907352,41.0505347 L207.907352,9.79873267 C207.902383,4.48146229 203.598746,0.171505362 198.286786,0.164039604 L47.6593103,0.164039604 C42.3455891,0.169017649 38.0392076,4.47970195 38.0342345,9.79873267 L38.0342345,47.1320396 L5.78075862,47.1320396 C2.94982203,47.1370013 0.655431719,49.431666 0.647986207,52.2654257 L0.647986207,146.702574 C0.647986207,149.533386 2.94826207,151.83596 5.78075862,151.83596 L128.850028,151.83596 C131.678014,151.83596 133.97829,149.533386 133.97829,146.702574 L133.97829,112.118812 L163.886386,112.118812 L163.886386,129.297822 C163.886386,131.586851 165.749159,133.451485 168.040414,133.451485 L213.202497,133.451485 C215.489241,133.451485 217.352014,131.586851 217.352014,129.297822 L217.352014,45.204198 C217.344587,42.9132795 215.491128,41.0579688 213.202497,41.0505347 Z M163.886386,45.204198 L163.886386,97.2243168 L133.97829,97.2243168 L133.97829,52.2654257 C133.97829,49.4346139 131.678014,47.1320396 128.850028,47.1320396 L53.3648966,47.1320396 L53.3648966,20.8014257 C53.3648966,17.8712871 55.7418483,15.4874455 58.6690621,15.4874455 L187.272524,15.4874455 C190.2031,15.4924081 192.578264,17.8679267 192.58571,20.8014257 L192.58571,41.0460198 L168.040414,41.0460198 C165.748266,41.0509861 163.891348,42.9097598 163.886386,45.204198 Z M176.136483,45.5653861 L205.106428,45.5653861 L205.106428,46.4186931 L176.136483,46.4186931 L176.136483,45.5653861 Z M42.5490897,9.79873267 C42.5490897,6.9769505 44.8448552,4.67889109 47.6638207,4.67889109 L198.291297,4.67889109 C201.110262,4.67889109 203.401517,6.9769505 203.401517,9.79873267 L203.401517,41.0505347 L197.100566,41.0505347 L197.100566,20.8059406 C197.093107,15.3789598 192.698601,10.9820827 187.277034,10.9771089 L58.6690621,10.9771089 C53.2510185,10.9870551 48.8619986,15.3824793 48.8545517,20.8059406 L48.8545517,47.1365545 L42.5490897,47.1365545 L42.5490897,9.79873267 Z M129.467945,146.702574 C129.465488,147.043158 129.190271,147.31865 128.850028,147.321109 L5.78075862,147.321109 C5.43875508,147.321118 5.16080932,147.04491 5.15833103,146.702574 L5.15833103,52.2654257 C5.15833103,51.9268119 5.43797241,51.6468911 5.78075862,51.6468911 L128.850028,51.6468911 C129.188303,51.6468911 129.467945,51.9268119 129.467945,52.2654257 L129.467945,146.702574 Z M133.97829,107.60396 L133.97829,101.739168 L163.886386,101.739168 L163.886386,107.60396 L133.97829,107.60396 Z M212.837159,128.936634 L168.392221,128.936634 L168.392221,45.5653861 L171.621628,45.5653861 L171.621628,46.7889109 C171.624117,49.0811525 173.48119,50.9380608 175.771145,50.9380594 L205.458234,50.9380594 C206.558756,50.9392575 207.614677,50.5027892 208.393708,49.7246728 C209.172739,48.9465563 209.611067,47.890531 209.612262,46.7889109 L209.612262,45.5653861 L212.837159,45.5653861 L212.837159,128.936634 Z" id="Shape" fill-rule="nonzero"></path>
            <path d="M190.6192,114.078257 C186.762855,114.078257 183.623655,117.211564 183.623655,121.071762 C183.720025,124.871143 186.824644,127.900962 190.621455,127.900962 C194.418266,127.900962 197.522886,124.871143 197.619255,121.071762 C197.609314,117.208198 194.47892,114.080732 190.6192,114.078257 Z" id="Path"></path>
        </g>
    </g>
</svg>