<?xml version="1.0" encoding="UTF-8"?>
<svg width="76px" height="92px" viewBox="0 0 76 92" version="1.1" xmlns="http://www.w3.org/2000/svg" xmlns:xlink="http://www.w3.org/1999/xlink">
    <!-- Generator: Sketch 52.6 (67491) - http://www.bohemiancoding.com/sketch -->
    <title>annotate</title>
    <desc>Created with Sketch.</desc>
    <g id="Page-1" stroke="none" stroke-width="1" fill="none" fill-rule="evenodd">
        <g id="annotate" fill="#50E3C1" fill-rule="nonzero">
            <path d="M76,32.75 C76,32.483 75.9,32.267 75.7,32.1 L65.85,22.25 C65.6920675,22.0539854 65.4516259,21.9430123 65.2,21.95 C65.1,21.95 65.017,21.967 64.95,22 C64.7782376,22.0360907 64.6213855,22.1232308 64.5,22.25 L20.45,66.3 C20.317,66.4 20.233,66.5 20.2,66.6 C20.1239751,66.684721 20.0721618,66.7883475 20.05,66.9 L17.65,74.15 L17.65,74.2 L15.2,81.55 C15.1,81.783 15.1,82 15.2,82.2 C15.333,82.467 15.5,82.667 15.7,82.8 C15.933,82.867 16.183,82.867 16.45,82.8 L23.75,80.35 C23.783,80.317 23.817,80.3 23.85,80.3 L31.1,77.85 L31.15,77.85 C31.2196662,77.8492556 31.2881795,77.8321273 31.35,77.8 C31.45,77.7 31.533,77.583 31.6,77.45 L70.7,38.5 C70.7,38.467 70.717,38.433 70.75,38.4 L75.7,33.5 C75.9,33.3 76,33.05 76,32.75 Z M67.75,3.5 C67.75,2.733 67.5,2.083 67,1.55 C66.4633209,0.995798317 65.7213779,0.68816343 64.95,0.7 L2.8,0.7 C2,0.7 1.333,0.983 0.8,1.55 C0.275595543,2.06170485 -0.0139358399,2.76743759 2.40828408e-15,3.5 L2.40828408e-15,88.45 C2.40828408e-15,89.25 0.267,89.933 0.8,90.5 C1.333,91 2,91.25 2.8,91.25 L64.95,91.25 C65.75,91.25 66.433,91 67,90.5 C67.5,89.933 67.75,89.25 67.75,88.45 L67.75,52.15 C67.75,51.35 67.5,50.7 67,50.2 C66.4633209,49.6457983 65.7213779,49.3381634 64.95,49.35 C64.183,49.35 63.533,49.633 63,50.2 C62.433,50.7 62.15,51.35 62.15,52.15 L62.15,85.65 L5.6,85.65 L5.6,6.35 L62.15,6.35 L62.15,16.6 C62.15,17.4 62.433,18.083 63,18.65 C63.533,19.183 64.183,19.45 64.95,19.45 C65.75,19.45 66.433,19.183 67,18.65 C67.5,18.083 67.75,17.4 67.75,16.6 L67.75,3.5 Z" id="Shape"></path>
        </g>
    </g>
</svg>