<?xml version="1.0" encoding="UTF-8"?>
<svg width="92px" height="92px" viewBox="0 0 92 92" version="1.1" xmlns="http://www.w3.org/2000/svg" xmlns:xlink="http://www.w3.org/1999/xlink">
    <!-- Generator: Sketch 52.6 (67491) - http://www.bohemiancoding.com/sketch -->
    <title>organize</title>
    <desc>Created with Sketch.</desc>
    <g id="Page-1" stroke="none" stroke-width="1" fill="none" fill-rule="evenodd">
        <g id="organize" fill="#50E3BE">
            <path d="M59.884,14.901 C58.7794305,14.901 57.884,15.7964305 57.884,16.901 C57.884,18.0055695 58.7794305,18.901 59.884,18.901 L65.569,18.901 C66.6735695,18.901 67.569,18.0055695 67.569,16.901 C67.569,15.7964305 66.6735695,14.901 65.569,14.901 L59.884,14.901 Z" id="Path"></path>
            <path d="M90,56 L77.69,56 L77.69,14.23 C77.69,13.1254305 76.7945695,12.23 75.69,12.23 C74.5854305,12.23 73.69,13.1254305 73.69,14.23 L73.69,54.81 L52.416,27.509 L65.568,27.509 C66.6725695,27.509 67.568,26.6135695 67.568,25.509 C67.568,24.4044305 66.6725695,23.509 65.568,23.509 L49.3,23.509 L45.71,18.9 L53.57,18.9 C54.6745695,18.9 55.57,18.0045695 55.57,16.9 C55.57,15.7954305 54.6745695,14.9 53.57,14.9 L42.593,14.9 L38.173,9.23 L75.69,9.23 C76.7945695,9.23 77.69,8.3345695 77.69,7.23 C77.69,6.1254305 76.7945695,5.23 75.69,5.23 L35.057,5.23 L31.577,0.77 C31.1979283,0.284214668 30.616184,0.000167040939 30,0 L2,0 C0.8954305,-6.76353751e-17 1.3527075e-16,0.8954305 0,2 L0,60 C1.3527075e-16,61.1045695 0.8954305,62 2,62 C3.1045695,62 4,61.1045695 4,60 L4,4 L29.023,4 L32.503,8.46 L32.507,8.465 L72.063,59.23 C72.4419745,59.7159052 73.0237812,59.9999833 73.64,60 L88,60 L88,88 L4,88 L4,79 C4,77.8954305 3.1045695,77 2,77 C0.8954305,77 1.3527075e-16,77.8954305 0,79 L0,90 C1.3527075e-16,91.1045695 0.8954305,92 2,92 L90,92 C91.1045695,92 92,91.1045695 92,90 L92,58 C92,56.8954305 91.1045695,56 90,56 Z" id="Path"></path>
            <path d="M2,73 C3.1045695,73 4,72.1045695 4,71 L4,68 C4,66.8954305 3.1045695,66 2,66 C0.8954305,66 1.3527075e-16,66.8954305 0,68 L0,71 C1.3527075e-16,72.1045695 0.8954305,73 2,73 Z" id="Path"></path>
        </g>
    </g>
</svg>