<?xml version="1.0" encoding="UTF-8"?>
<svg width="90px" height="86px" viewBox="0 0 90 86" version="1.1" xmlns="http://www.w3.org/2000/svg" xmlns:xlink="http://www.w3.org/1999/xlink">
    <!-- Generator: Sketch 52.6 (67491) - http://www.bohemiancoding.com/sketch -->
    <title>scan</title>
    <desc>Created with Sketch.</desc>
    <g id="Page-1" stroke="none" stroke-width="1" fill="none" fill-rule="evenodd">
        <g id="scan" fill="#4EDBBB">
            <path d="M0,0.3 L9.7,0.3 L9.7,3.5 L3.3,3.5 L3.3,10 L0,10 L0,0.3 Z M80.2,3.6 L80.2,0.3 L90,0.3 L90,10 L86.8,10 L86.8,3.5 C84.6,3.6 82.4,3.6 80.2,3.6 Z M3.2,82.4 L9.7,82.4 L9.7,85.6 L0,85.6 L0,75.9 L3.2,75.9 L3.2,82.4 Z M80.2,85.7 L80.2,82.5 L86.7,82.5 L86.7,76 L90,76 L90,85.7 L80.2,85.7 Z M64.7,61.5 C64.7,66.4 64.1,71.2 63,76 C62.7,77.2 63.2,78 64.2,78.2 C65.1,78.4 65.9,77.8 66.2,76.6 C67.3,71.8 67.9,67 68,62.1 C67.9,60.8 67.9,59.7 67.8,58.4 C67.7,57.5 67.6,56.9 67.4,55.9 L64,55.9 C64.5,58 64.7,59.6 64.7,61.5 Z M44.1,36.5 C51.5,37.8 57.5,42 61.1,48 L64.9,48 C61.3,41 55.3,36 46.7,33.9 C35.5,31.1 25.9,34.5 18.4,43.4 C17.1,44.9 16,47 15.2,48 L19,48 C24.1,40 34.1,34.7 44.1,36.5 Z M12.2,59.6 C12.1,60.7 12.7,61.3 13.7,61.4 C14.7,61.5 15.4,60.8 15.5,59.7 C15.6,58.9 15.7,58.2 15.8,57.3 C15.9,56.8 16,56 16.1,56 L12.7,56 C12.4,57 12.2,58.3 12.2,59.6 Z" id="Shape"></path>
            <path d="M49.3,27.8 C35.9,24 24.1,27.8 14.5,37.9 C12.4,40.1 10.7,42.7 9.3,45.4 C8.8,46.4 9.2,47.5 10.2,47.9 C11.1,48.2 11.8,47.8 12.4,46.8 C18.8,34.9 31.1,28.4 44.4,30.1 C54.9,31.4 64.1,39 68.5,48 L72,48 C68,38 60.5,31 49.3,27.8 Z M71.1,66.6 C71,67.9 71.6,68.6 72.7,68.6 C73.7,68.6 74.4,67.9 74.4,66.7 C74.5,65.5 74.5,64.2 74.6,63 L74.7,63 C74.6,61.2 74.6,59.6 74.4,57.8 C74.4,57.2 74.3,56.1 74.2,56.1 L70.9,56.1 C71.4,59 71.3,63 71.1,66.6 Z" id="Shape"></path>
            <path d="M36.3,39.8 C31,40.7 26.2,44 23,48 L27.3,48 C31.4,44 37.5,41.9 43.9,43.2 C47.4,43.9 50.4,46 52.8,48 L57.1,48 C52.4,42 44.7,38.5 36.3,39.8 Z M18.9,58.4 C18.5,62 18.6,65.6 17.3,69 C17,69.8 17.6,70.6 18.4,70.9 C19.2,71.2 20,70.8 20.4,70 C20.5,69.8 20.6,69.5 20.6,69.3 C21.5,66.6 21.9,64 22,61.2 C22,59.3 22.3,57 22.9,56 L19.5,56 C19.2,57 19,57.6 18.9,58.4 Z M58.1,62.7 C57.9,69 56.8,75 54.8,81 C54.4,82.3 54.7,83.1 55.7,83.4 C56.7,83.8 57.5,83.2 57.9,82 C60,75.6 61.3,69 61.5,62.2 C61.4,60.6 61.4,59.2 61.1,57.6 C61,57 60.8,56 60.7,56 L57.3,56 C57.9,58 58.2,60.3 58.1,62.7 Z" id="Shape"></path>
            <path d="M24.3,23 C18.7,25.3 13.9,28.8 9.8,33.2 C9,34 9,35 9.8,35.7 C10.5,36.4 11.5,36.3 12.3,35.5 C12.5,35.3 12.6,35.2 12.7,35 C21.7,25.9 32.5,21.7 45.2,23.6 C60,25.8 70.1,34 75.5,48 L79,48 C71.7,26 46.5,13.8 24.3,23 Z M32.8,48 L47.4,48 C45.2,47 42.8,46 40.2,46.1 C37.4,46.1 34.9,47 32.8,48 Z M25.4,59.3 C25.2,61.3 25.2,63.2 24.9,65.2 C24.5,68.4 23.4,71.4 22.2,74.4 C21.8,75.3 22.2,76.2 23,76.6 C23.9,77 24.8,76.6 25.2,75.7 C26.6,72.4 27.7,69 28.2,65.5 C28.5,63.3 28.4,61.2 28.8,59.1 C29,58 29.4,57.1 29.9,56.1 L26.3,56.1 C25.8,57 25.5,58.1 25.4,59.3 Z M51.2,59 C51.6,61.6 51.4,64.3 51.1,67 C50.6,72.6 49.1,77.9 47,83 C46.5,84.1 46.8,85 47.8,85.4 C48.7,85.8 49.6,85.3 50.1,84.2 C52.8,77.4 54.5,70.3 54.9,63 C54.8,61.7 54.8,60.5 54.7,59.2 C54.5,58 54.2,57 53.8,56 L50.2,56 C50.7,57 51.1,57.9 51.2,59 Z" id="Shape"></path>
            <path d="M14.4,24.9 C14.7,24.8 15,24.5 15.3,24.4 C24.9,18 35.5,15.6 46.9,17.4 C60.2,19.5 70.5,26.4 77.8,37.8 C77.9,38 78,38.2 78.2,38.3 C78.8,38.9 79.6,39.1 80.3,38.6 C81,38.2 81.2,37.3 80.9,36.6 C80.8,36.3 80.6,36.1 80.4,35.8 C70.8,21.3 57.3,14 41.9,13.4 C30.3,13.5 21.4,16.2 13.3,21.6 C13,21.8 12.7,22 12.5,22.2 C11.9,22.8 11.8,23.6 12.3,24.3 C12.7,25 13.6,25.2 14.4,24.9 Z M31.9,60.5 C31.7,62.3 31.7,64.1 31.5,66 C30.9,70.4 29.5,74.5 27.6,78.5 C27.1,79.5 27.4,80.4 28.3,80.8 C29.2,81.2 30,80.8 30.5,79.8 C33.2,74 35,67.9 35.1,61.4 C35.1,58.4 37.2,56.2 40,56.2 C42.8,56.2 44.9,58.4 44.9,61.4 C44.9,65.9 44.3,70.3 42.9,74.6 C42,77.5 40.9,80.2 39.8,83.1 C39.5,83.8 39.4,84.5 40,85 C40.4,85.3 41.1,85.6 41.5,85.5 C42,85.3 42.6,84.8 42.8,84.2 C45.9,77.4 47.8,70.4 48.1,63 L48.1,61.3 C48,59.2 47.3,57.1 46,56.1 L33.9,56.1 C32.8,57 32.1,58.6 31.9,60.5 Z" id="Shape"></path>
            <path d="M20.3,14.1 C25.2,12 30.3,10.7 35.7,10.3 C48.2,9.3 59.6,12.4 69.8,19.7 C71.6,21 73.2,22.4 74.8,23.8 C75.4,24.3 76,24.6 76.7,24.2 L77.3,23.6 C77.7,23.1 77.7,22.5 77.4,22 C77.2,21.7 77.1,21.5 76.9,21.3 C74.2,18.7 71.2,16.5 67.9,14.5 C56.4,7.7 44,5.4 30.9,7.6 C26.8,8.3 22.8,9.4 19,11.1 C17.8,11.6 17.4,12.7 18,13.6 C18.5,14.4 19.3,14.6 20.3,14.1 Z" id="Path"></path>
            <path d="M30.4,4.4 C30.7,4.4 31,4.3 31.2,4.3 C37.4,3.3 43.7,3.4 49.9,4.5 C55.5,5.5 60.8,7.2 65.9,9.8 C66.9,10.3 67.9,10.1 68.3,9.2 C68.8,8.3 68.4,7.4 67.3,6.8 C67.1,6.7 67,6.6 66.8,6.6 C58.4,2.4 49.5,0.4 40,0.5 C38.5,0.5 37,0.4 35.5,0.5 C33.6,0.6 31.7,0.9 29.9,1.2 C28.9,1.4 28.4,2.1 28.5,3.1 C28.7,3.9 29.4,4.4 30.4,4.4 Z M41.7,62.4 C41.7,61.2 41.1,60.4 40.1,60.4 C39.1,60.4 38.6,61.1 38.5,62.4 C38.3,64.9 38.1,67.5 37.7,70 C37,74.3 35.4,78.4 33.6,82.4 C33.1,83.4 33.4,84.4 34.3,84.8 C35.2,85.2 36.1,84.8 36.5,83.9 C39.5,77.5 41.5,70.8 41.8,63.5 C41.7,63.2 41.7,62.8 41.7,62.4 Z M0,48.1 L90,48.1 L90,52.4 L0,52.4 L0,48.1 Z" id="Shape"></path>
        </g>
    </g>
</svg>