<?xml version="1.0" encoding="UTF-8"?>
<svg width="79px" height="72px" viewBox="0 0 79 72" version="1.1" xmlns="http://www.w3.org/2000/svg" xmlns:xlink="http://www.w3.org/1999/xlink">
    <!-- Generator: Sketch 52.6 (67491) - http://www.bohemiancoding.com/sketch -->
    <title>share</title>
    <desc>Created with Sketch.</desc>
    <g id="Page-1" stroke="none" stroke-width="1" fill="none" fill-rule="evenodd">
        <g id="share" fill="#50E3BE">
            <path d="M70,42.1 C68.9,42.1 68,43 68,44.1 L68,68 L4,68 L4,22.1 L17,22.1 C18.1,22.1 19,21.2 19,20.1 C19,19 18.1,18.1 17,18.1 L4,18.1 C1.8,18.1 0,19.9 0,22.1 L0,68 C0,70.2 1.8,72 4,72 L68,72 C70.2,72 72,70.2 72,68 L72,44.1 C72,43 71.1,42.1 70,42.1 Z" id="Path"></path>
            <path d="M58.6,1.6 C57.6,0.7 56.2,0.5 55,1 C53.8,1.5 53,2.7 53,4 L53,13.2 C18.1,16.4 15.2,35.4 15.1,36.3 C14.3,42.3 14.9,57 36,63.9 C36.2,64 36.5,64 36.7,64 C37.6,64 38.4,63.5 38.8,62.6 C39.3,61.5 38.9,60.3 37.8,59.7 C33.1,57 30.3,53.9 29.6,50.3 C28.6,45.5 31.6,41.4 31.7,41.2 C37.4,34 48.7,33.1 53,33 L53,40.9 C53,42.2 53.8,43.4 55,43.9 C56.2,44.4 57.6,44.1 58.6,43.2 L77.9,24.3 C78.5,23.7 78.9,22.8 78.9,21.9 C78.9,21 78.5,20.1 77.9,19.5 L58.6,1.6 Z M57,39.2 L57,32.2 C57,30.4 55.5,28.9 53.7,28.9 C49.6,28.9 35.7,29.6 28.5,38.6 L28.4,38.8 C27.8,39.6 24.4,44.7 25.6,50.9 C25.9,52.2 26.3,53.5 27,54.7 C22.1,51 18,45.3 19.1,36.6 C19.1,36.4 21.7,19.7 54.1,17 C55.8,16.9 57.1,15.4 57.1,13.7 L57.1,5.5 L74.7,21.9 L57,39.2 Z" id="Shape"></path>
        </g>
    </g>
</svg>