<?xml version="1.0" encoding="UTF-8"?>
<svg width="100px" height="90px" viewBox="0 0 100 90" version="1.1" xmlns="http://www.w3.org/2000/svg" xmlns:xlink="http://www.w3.org/1999/xlink">
    <!-- Generator: Sketch 52.6 (67491) - http://www.bohemiancoding.com/sketch -->
    <title>Shape</title>
    <desc>Created with Sketch.</desc>
    <g id="Page-1" stroke="none" stroke-width="1" fill="none" fill-rule="evenodd">
        <path d="M2.38463457,0.000190599684 L97.6153654,0.000190599684 C98.2501749,-0.00796693866 98.8613196,0.246027488 99.3102332,0.704585047 C99.7591467,1.16314261 100.007799,1.78741653 99.9998134,2.43586354 L99.9998134,87.5641365 C100.007799,88.2125835 99.7591467,88.8368574 99.3102332,89.295415 C98.8613196,89.7539725 98.2501749,90.0079669 97.6153654,89.9998094 L2.38463457,89.9998094 C1.74982513,90.0079669 1.1386804,89.7539725 0.689766823,89.295415 C0.24085325,88.8368574 -0.00779938489,88.2125835 0.000186591156,87.5641365 L0.000186591156,2.43586354 C-0.00779938489,1.78741653 0.24085325,1.16314261 0.689766823,0.704585047 C1.1386804,0.246027488 1.74982513,-0.00796693866 2.38463457,0.000190599684 Z M71.2098119,47.4206379 C69.9856585,47.2965449 69.0548518,46.2415441 69.060865,44.984965 C69.0561702,43.7344281 69.9902611,42.6887757 71.2098119,42.5793621 C70.899137,41.0427374 70.2992804,39.5823657 69.4435542,38.2793469 C68.5013261,39.0647249 67.1314493,38.9999423 66.2642902,38.1289967 C65.3941287,37.2391427 65.3303481,35.8188548 66.1171021,34.8513627 C64.8335481,33.9988478 63.4061479,33.3972686 61.9075211,33.0772306 C61.7860378,34.3276824 60.753225,35.2784856 59.5230731,35.2723432 C58.2988365,35.2771389 57.2751752,34.322981 57.1680627,33.0772306 C55.6677936,33.3918026 54.2394271,33.9937891 52.9584817,34.8513627 C53.6602611,35.4397027 53.9740734,36.3840788 53.7679094,37.2872269 C53.5617454,38.190375 52.8713811,38.8955704 51.9872272,39.1061634 C51.1030733,39.3167564 50.1785585,38.9962025 49.602592,38.2793469 C48.7559199,39.5839511 48.1660052,41.0444606 47.8657719,42.5793621 C49.0853227,42.6887757 50.0194136,43.7344281 50.0147188,44.984965 C50.020732,46.2415441 49.0899253,47.2965449 47.8657719,47.4206379 C48.1601482,48.9842798 48.7783384,50.4276416 49.602592,51.7206531 C50.5505927,50.9258924 51.934181,50.9953052 52.8013779,51.881132 C53.6685748,52.7669588 53.7365278,54.1802708 52.9584817,55.1486373 C54.2394271,56.0062109 55.6677936,56.6081974 57.1680627,56.9227694 C57.2751752,55.677019 58.2988365,54.7228611 59.5230731,54.7276568 C60.7594535,54.7276568 61.7897705,55.6898979 61.9075211,56.9227694 C63.4061479,56.6027314 64.8335481,56.0011522 66.1171021,55.1486373 C65.3303481,54.1811452 65.3941287,52.7608573 66.2642902,51.8710033 C67.1314493,51.0000577 68.5013261,50.9352751 69.4435542,51.7206531 C70.2992804,50.4176343 70.899137,48.9572626 71.2098119,47.4206379 Z M59.5230731,27.9653244 C66.2485817,28.0045971 72.2964325,32.1562426 74.8727129,38.5023343 C77.4489932,44.848426 76.0521825,52.1535798 71.3275624,57.0430496 C66.5409238,61.8691684 59.3894057,63.2959867 53.1767795,60.6643602 C46.9641533,58.0327338 42.8998216,51.8549573 42.8613749,44.984965 C42.8377261,40.4637134 44.5855549,36.1206515 47.7153705,32.9235982 C50.8451861,29.7265448 55.0969085,27.9411676 59.5230731,27.9653244 Z M59.5230731,37.7080162 C63.4556534,37.724345 66.644215,40.9680028 66.676417,44.984965 C66.6883344,47.9430842 64.9530544,50.6167033 62.2809984,51.7571716 C59.6089425,52.8976398 56.5273459,52.2799265 54.4753956,50.1925199 C52.4234453,48.1051133 51.8060207,44.9598889 52.9114754,42.2257496 C54.0169301,39.4916103 56.627142,37.7080412 59.5230731,37.7080162 Z M61.201018,43.2709729 C60.2653292,42.3467856 58.780817,42.3467856 57.8451282,43.2709729 C56.9102959,44.2175846 56.9037061,45.7590767 57.8304095,46.713992 C58.7571128,47.6689073 60.2661856,47.6756387 61.201018,46.7290271 L61.2304556,46.7290271 C62.1239778,45.7570192 62.1239778,44.2429808 61.2304556,43.2709729 L61.201018,43.2709729 Z M16.6618848,48.5933693 C17.6726068,48.7423799 18.4240269,49.6250772 18.4281425,50.6682019 L18.4281425,63.5081074 C18.4240269,64.5512321 17.6726068,65.4339293 16.6618848,65.5829399 L16.6618848,72.9801688 L83.3381152,72.9801688 L83.3381152,17.0198312 L16.6618848,17.0198312 L16.6618848,24.4170601 C17.6726068,24.5660707 18.4240269,25.4487679 18.4281425,26.4918926 L18.4281425,39.3317981 C18.4240269,40.3749228 17.6726068,41.2576201 16.6618848,41.4066307 L16.6618848,48.5933693 Z M11.8929888,65.5829399 C10.8705874,65.4475597 10.1034671,64.5611921 10.0972934,63.5081074 L10.0972934,50.6682019 C10.1034671,49.6151171 10.8705874,48.7287495 11.8929888,48.5933693 L11.8929888,41.4066307 C10.8705874,41.2712505 10.1034671,40.3848829 10.0972934,39.3317981 L10.0972934,26.4918926 C10.1034671,25.4388079 10.8705874,24.5524403 11.8929888,24.4170601 L11.8929888,14.5841582 C11.8929888,13.2610766 12.9821811,12.1484853 14.2774368,12.1484853 L85.7225632,12.1484853 C87.0472565,12.1484853 88.1070112,13.2610766 88.1070112,14.5841582 L88.1070112,75.4158418 C88.1070604,76.0590916 87.854907,76.6755677 87.4068696,77.1275802 C86.9588321,77.5795927 86.3522356,77.8294853 85.7225632,77.8214447 L14.2774368,77.8214447 C12.9719535,77.8215463 11.9091059,76.7492691 11.8929888,75.4158418 L11.8929888,65.5829399 Z M28.6135623,30.4009974 C28.6055763,29.7525503 28.854229,29.1282764 29.3031425,28.6697189 C29.7520561,28.2111613 30.3632008,27.9571669 30.9980103,27.9653244 C32.293266,27.9653244 33.3824582,29.0478457 33.3824582,30.4009974 L33.3824582,59.5990026 C33.3665746,60.9374095 32.3082689,62.0184507 30.9980103,62.0346756 C29.681116,62.0346756 28.6135623,60.9441877 28.6135623,59.5990026 L28.6135623,30.4009974 Z M95.2603551,4.87153649 L4.76908254,4.87153649 L4.76908254,85.1284635 L95.2603551,85.1284635 L95.2603551,4.87153649 Z" id="Shape" fill="#50E3BE" fill-rule="nonzero"></path>
    </g>
</svg>